<?xml version="1.0" encoding="utf-8"?>
<!-- Generator: Adobe Illustrator 16.0.2, SVG Export Plug-In . SVG Version: 6.00 Build 0)  -->
<!DOCTYPE svg PUBLIC "-//W3C//DTD SVG 1.1//EN" "http://www.w3.org/Graphics/SVG/1.1/DTD/svg11.dtd">
<svg version="1.1"
	 id="svg4402" xmlns:dc="http://purl.org/dc/elements/1.1/" xmlns:cc="http://creativecommons.org/ns#" xmlns:rdf="http://www.w3.org/1999/02/22-rdf-syntax-ns#" xmlns:svg="http://www.w3.org/2000/svg" xmlns:sodipodi="http://sodipodi.sourceforge.net/DTD/sodipodi-0.dtd" xmlns:inkscape="http://www.inkscape.org/namespaces/inkscape" sodipodi:docname="Dragon silhouette.svg" inkscape:version="0.48.1 "
	 xmlns="http://www.w3.org/2000/svg" xmlns:xlink="http://www.w3.org/1999/xlink" x="0px" y="0px" width="400px" height="500px"
	 viewBox="0 0 400 500" enable-background="new 0 0 400 500" xml:space="preserve">
<sodipodi:namedview  inkscape:cy="250" inkscape:cx="200" inkscape:zoom="1.038" showgrid="false" guidetolerance="10" gridtolerance="10" pagecolor="#ffffff" borderopacity="1" bordercolor="#666666" objecttolerance="10" id="namedview7" inkscape:window-height="738" inkscape:window-y="-8" inkscape:pageshadow="2" inkscape:window-x="-8" inkscape:pageopacity="0" inkscape:window-width="1280" inkscape:window-maximized="1" inkscape:current-layer="svg4402">
	</sodipodi:namedview>
<g id="layer1" transform="matrix(0.80364079,0,0,0.80717071,-98.992373,-174.71797)">
	
		<path id="path3849" sodipodi:nodetypes="ccccscccccccczcczccccsccccccccccccccccccccccccccscccccccccccccccccccccccccccccccczccccccccccccccccccccccccccccccccccccccccccccccccccccscccsccccccccs" inkscape:connector-curvature="0" d="
		M549.193,244.952c-1.807,0.015-3.823,0.449-6.026,1.4c-36.675,14.384-52.045,67.173-110.2,65.075
		c-16.874-3.567-29.429,1.348-24.272,31.8c7.816,43.888,6.663,73.302-7.828,89.9c-17.088,19.58-44.302,19.706-58.923-2.675
		c-7.416-7.471-15.151-7.293-21.225,0c-12.512,19.533,6.97,31.832,2.525,53.625c-6.729-4.238-11.661-5.305-17.275-5.675
		c-4.431-9.418-6.196-10.702-11.05-15.25c6.93-16.39,6.484-23.912,7.176-32.975c7.01-5.035,15.068-13.869,21.075-21.725
		c30.017-22.321,71.195-38.37,60.836-94.951c21.048-1.184,37.696-3.42,49.323-13.134c11.629-9.713,9.212-30.669-3.737-28.381
		c16.514,35.769-65.316,25.255-83.996,24.89c57.679-8.67,64.407-9.025,72.977-20.869c8.573-11.843,1.36-30.688-11.153-27.206
		c21.298,39.675-50.287,21.785-96.626,37.275c-8.706-12.812-20.739-11.312-26.925-2.35c-25.322,14.952-40.027-6.888-56.5,4.775
		c-2.893,2.164-4.778,7.557-5.25,13.725c-0.242,3.15,2.007,6.064,3.675,8.425c-1.125,6.109,1.224,15.128,7.125,17.55
		c-1.865-12.707,5.203-25.919,22.2-10.75c4.033-0.978,10.183-0.217,16.425,5.625c-42.605,12.975-42.265,24.281-76.575,0.875
		l22-0.825l-41.525-9.774l17.899,29.325l-0.8-13.025c43.453,30.79,43.285,6.939,78.849,5.3l-7.975,11.875
		c-7.396,7.579-24.042,23.743-13.8,32.425c7.917,5.169,30.694-34.567,57-32.4c15.568,1.804,23.463-28.622,39.964-21.984
		c-6.03,56.388-92.394,31.721-139.639,119.434c-26.872,64.087,22.301,108.334,57.15,127.95c2.23,11.603-13.357,26.714-17.7,42.05
		c-13.634-23.154-5.243-62.107-26.725-61.875c0.012-0.036,0.038-0.065,0.05-0.103c-9.044-6.668-16.055-6.548-21.509,4.64
		c6.849-2.738,10.237-0.525,11.234,3.688c0.086,0.005,0.25,0,0.25,0c-1.894,11.053,5.313,17.968,13.95,17.1
		c10.843,10.41,4.598,23.781,12.125,36.55c-7.467-6.007-15.521-6.625-21.75-24.175c-1.553-10.941-5.775-14.178-13.996-15.992
		c-10.579-11.883-19.629,3.948-20.564,6.105c-0.955,2.202,10.025-6.773,12.836,4.815c-3.739,3.845,4.884,19.314,15.673,18.622
		c1.218,6.676,12.411,13.369,21.225,20.05c-17.355,8.363-29.877-10.474-41.425,7.525c-0.033,0-0.067-0.002-0.1,0
		c-14.928,5.453-7.957,19.907-4.35,23.798c0.131-4.497,2.35-11.121,10.275-10.7c4.629,3.119,9.573,4.082,17.4-5.326
		c15.337-3.95,30.689-7.201,46.025,8.85c-1.332,9.374-4.644,19.313,9.6,24.15c3.178,4.977,6.386,8.067,4.075,17.4
		c10.751-4.202,13.387-15.104,7.875-25.125c0.885-3.499,0.565-6.392-0.676-8.874c1.478-1.609,3.52-2.185,8.075-0.426
		c0.88,5.742,11.671,5.265,17.85,3.275c6.17,3.729,14.922,5.978,27.275,6.099c-7.332,5.194-12.442,11.686-25.525,13.526
		c-10.839,0.996-14.636,8.6-14.6,12.925c-8.407,5.343-8.989,21.145,3.8,21.725c-1.472-4.695-1.366-9.507,4.126-11.9
		c6.781,0.189,12.217-5.925,14.8-10.925c8.709-4.871,19.5-8.367,23.199-16.575c-1.283,9.587-2.188,19.03-1.175,27.725
		c-5.357,5.079-4.314,14.154,0.514,18.996c0.689,6.601,1.079,23.171,16.611,11.502c-3.735-3.135-6.527-3.517-4.55-12.124
		c5.891-7.91,3.35-14.448,0.005-18.926c-1.758-11.259-0.08-20.876,5.169-25.374c7.959,1.643,15.639,1.937,22.274-2.075
		c5.963,3.669,11.607,3.942,16.925,0.852c5.817-2.098,10.645,1.621,13.301,5.622c7.069-12.989-1.396-20.691-12.2-20.275
		c-3.071-5.732-12.374-7.136-18.019-2.347c-5.646,4.786-8.698,3.212-14.756,3.748c-7.451-0.237-11.712-4.18-12.075-12.677
		c-7.998-24.346-15.647-48.716-10.4-73.8c27.721-3.971,55.521-9.045,83.875-23.373c13.53-1.8,27.774-0.929,43.501,3.949
		l15.602,12.476l1.323,25.822l-13.55,15.502l-17.625,6.751l-14.024-10.7l-1.45-15.775l7.25-17.726l11.125-16.173
		c-11.777-2.745-21.922-2.42-31.167-1.476l-12.583,14.251l-9.173,23.377v29.298l14.249,23.673l18.124,16.051l23.702,2.6
		c8.407-7.184,18.185-9.219,28.8-8.05c4.513-5.333,9.177-9.028,14.225-11.501c-0.017,0.031-0.373,3.827-0.373,3.827
		c-4.889,34.279-26.753,47.182-43.903,53.65c10.177-6.164,13.023-11.518,11.301-20.702c-18.104-14.562-32.361,18.61-55.65,20.826
		c23.399,9.805,35.162,50.928,59.4,28.25c-0.989-19.401-12.227-17.56-16.15-18.926c32.404,4.64,77.193-28.877,68.673-100.152
		c2.231-3.147,4.829-5.799,7.75-8.025c-7.077-20.298-9.113-39.123,3.2-53.775c-16.808-14.402-25.397-30.865-25.149-49.526
		c-18.935,2.104-34.696-0.353-37.927-20.775c-9.43,6.571-18.719,11.099-26.949-0.525c-7.614,10.572-25.255,7.395-29.424,4.175
		c-6.982,8.729-21.788,13.512-30.576,5.9c-8.856,9.867-17.282,11.959-21.323,2.175c2.269-25.065,52.252-19.262,65.325-8.65
		c-0.199-29.983,34.183-27.84,66.25-9.401c10.831,10.195,33.674,12.056,34.275-12.875c-4.06,8.169-14.405,8.894-17.525-0.875
		c1.241-27.82,34.986-19.974,49.126-23.525c11.628-1.298,8.144-21.28,1.151-20.849c-0.569,6.023-4.777,9.64-14.101,4.424
		c-14.13-8.591-12.464-45.073,2.302-50.124c11.42-3.941,13.172-36.308-1.901-36.4c3.038,19.638-6.381,20.995-13.724,14.2
		c-11.311-17.059-10.086-55.995,6.849-81.2c4.58-3.431,9.267-6.646,19.8,2.65C562.924,257.035,558.946,244.868,549.193,244.952z
		 M296.567,290.977c1.703-0.028,3.567,0.38,5.475,1.425c4.634,2.534,3.217,6.967-3.265,7.94c-1.332-10.6-4.117-10.05-4.805,0.858
		C279.655,304.11,287.37,291.125,296.567,290.977z M286.392,573.277c2.873-0.19,6.53,2.394,10.049,4.475
		c15.28,23.567,30.161,46.478,35.174,70.046c-9.519,2.681-19.236,1.788-29.524-8.099c-8.411-5.275-15.363-3.402-17.226,1.974
		c-6.448-0.352-11.27,1.626-12.65,6.025c-1.047-0.893-2.108-1.771-3.074-2.775c-4.886-4.912-8.353-11.477-15.676-13.55
		c2.004-21.584,21.564-19.042,27.801-48.898C281.931,575.773,283.857,573.445,286.392,573.277z"/>
</g>
<text transform="matrix(1 0 0 1 -12.771 496.3242)" font-family="'MyriadPro-Regular'" font-size="90">The Dragon</text>
</svg>
